<svg xmlns="http://www.w3.org/2000/svg" xmlns:xlink="http://www.w3.org/1999/xlink" width="18" height="18" viewBox="0 0 18 18"><defs><path id="cp2ra" d="M323.393 6297.025a3.372 3.372 0 0 1-3.368 3.368h-8.06a3.372 3.372 0 0 1-3.368-3.368v-8.06a3.372 3.372 0 0 1 3.368-3.368h8.06a3.372 3.372 0 0 1 3.368 3.368v8.06zm-3.36-13.025h-8.066a4.973 4.973 0 0 0-4.967 4.967v8.066a4.973 4.973 0 0 0 4.967 4.967h8.066a4.973 4.973 0 0 0 4.967-4.967v-8.066a4.973 4.973 0 0 0-4.967-4.967z"/><path id="cp2rb" d="M316 6296.45a2.954 2.954 0 0 1-2.95-2.95 2.954 2.954 0 0 1 2.95-2.95 2.954 2.954 0 0 1 2.95 2.95 2.954 2.954 0 0 1-2.95 2.95zm0-7.45a4.505 4.505 0 0 0-4.5 4.5c0 2.481 2.019 4.5 4.5 4.5s4.5-2.019 4.5-4.5-2.019-4.5-4.5-4.5z"/><path id="cp2rc" d="M321 6287a1.004 1.004 0 0 0-1 1c0 .263.107.52.294.707.185.186.443.293.706.293.264 0 .52-.107.707-.293a1.004 1.004 0 0 0 0-1.415A1.004 1.004 0 0 0 321 6287z"/></defs><g><g transform="translate(-307 -6284)"><g/><g><g><use fill="#9e9e9e" xlink:href="#cp2ra"/></g><g><use fill="#9e9e9e" xlink:href="#cp2rb"/></g><g><use fill="#9e9e9e" xlink:href="#cp2rc"/></g></g></g></g></svg>