<svg xmlns="http://www.w3.org/2000/svg" xmlns:xlink="http://www.w3.org/1999/xlink" width="24" height="17" viewBox="0 0 24 17"><defs><path id="yikva" d="M251.408 6293.909l-5.035 2.597a.782.782 0 0 1-.76-.023.762.762 0 0 1-.373-.654v-5.178c0-.267.141-.514.372-.653a.783.783 0 0 1 .76-.025l5.034 2.58a.763.763 0 0 1 .418.678c0 .285-.16.546-.416.678zm7.657-7.476c-.867-1.018-2.466-1.433-5.52-1.433h-11.09c-3.124 0-4.75.442-5.614 1.526-.841 1.056-.841 2.613-.841 4.768v4.107c0 4.175.998 6.295 6.456 6.295h11.088c2.65 0 4.117-.367 5.067-1.265.973-.921 1.389-2.425 1.389-5.03v-4.107c0-2.272-.065-3.838-.935-4.86z"/></defs><g><g transform="translate(-236 -6285)"><g/><g><use fill="#9e9e9e" xlink:href="#yikva"/></g></g></g></svg>